<svg width="504" height="442" viewBox="0 0 504 442" fill="none" xmlns="http://www.w3.org/2000/svg">
<g clip-path="url(#clip0_8_234)">
<path d="M499.568 338.006L462.554 340.976C462.617 342.579 462.884 398.117 480.849 427.787C485.092 434.828 480.849 438.505 480.849 438.505C480.849 438.505 43.6307 442.701 34.5462 438.505C-14.1925 415.938 5.50105 337.628 5.50105 337.628L83.4578 22.8187C87.5757 6.22329 94.3655 7.3548 94.3655 7.3548C94.3655 7.3548 408.424 1.63441 411.867 2.21588C415.309 2.7502 416.472 2.21588 416.472 2.21588C416.472 2.21588 502.428 328.262 502.428 331.515C502.428 334.768 499.568 338.006 499.568 338.006Z" fill="black" stroke="black" stroke-width="2" stroke-miterlimit="10"/>
<path d="M446.083 342.343L462.098 341.054L499.112 338.1C499.112 338.1 501.973 334.847 501.973 331.609C501.973 328.372 416.016 2.29443 416.016 2.29443C416.016 2.29443 414.853 2.84447 411.411 2.29443C407.969 1.71297 93.9097 7.43335 93.9097 7.43335C93.9097 7.43335 87.1199 6.30184 83.002 22.8972L5.06094 337.707C5.06094 337.707 -14.6483 416.016 34.1061 438.584C43.1906 442.78 480.409 438.584 480.409 438.584C480.409 438.584 484.652 434.922 480.409 427.882C462.428 398.195 462.177 342.673 462.114 341.054C456.456 352.699 448.063 376.367 450.986 393.889C453.108 406.65 454.035 417.557 459.442 429.422C462.114 435.268 43.2692 429.422 43.2692 429.422C43.2692 429.422 -8.45575 395.602 25.1788 342.123L446.098 342.343H446.083ZM91.9607 26.6218C92.0393 26.2289 93.8939 20.5242 94.0511 20.1628L95.7171 16.674C96.2515 15.4325 98.279 13.7823 99.6307 13.7666C127.246 13.1537 406.35 7.05618 409.98 9.2249C409.98 9.2249 491.882 316.617 492.589 319.571C494.428 327.209 492.071 326.47 492.071 326.47L30.1769 327.083H26.3576L91.9607 26.6218Z" fill="white"/>
<path d="M454.978 385.874L74.2476 386.739L455.419 384.067L454.978 385.874Z" fill="white"/>
<path d="M93.281 404.591H404.432L241.477 406.021L93.281 404.591Z" fill="white"/>
<path d="M50.2947 368.446H420.841L226.782 369.766L50.2947 368.446Z" fill="white"/>
<path d="M432.849 289.225L326.538 289.115V286.695L429.925 286.821L410.468 184.089L412.841 183.649L432.849 289.225Z" fill="white"/>
<path d="M448.377 272.253L407.953 272.237V269.832L445.407 269.848L424.566 170.779L426.923 170.276L448.377 272.253Z" fill="white"/>
<path d="M415.953 306.921L297.635 306.795V304.375L413.108 304.5L407.513 271.2L409.902 270.807L415.953 306.921Z" fill="white"/>
<path d="M456.534 306.968L433.745 306.936L429.925 286.805L452.275 286.836L456.534 306.968ZM435.741 304.532H453.548L450.31 289.257H432.833L435.725 304.532H435.741Z" fill="white"/>
<path d="M186.09 288.926L79.5913 288.801L100.118 183.272L102.491 183.728L82.5304 286.396L186.09 286.506V288.926Z" fill="white"/>
<path d="M104.581 271.875L64.1414 271.797L86.0981 169.867L88.4557 170.37L67.1276 269.392L104.581 269.471V271.875Z" fill="white"/>
<path d="M214.727 306.669L96.4087 306.528L102.633 270.43L105.022 270.838L99.2692 304.123L214.727 304.249V306.669Z" fill="white"/>
<path d="M78.6169 306.512L55.8271 306.481L60.1808 286.365H82.5305L78.6169 306.496V306.512ZM58.8134 304.076H76.6209L79.5914 288.801H62.114L58.8134 304.076Z" fill="white"/>
<path d="M397.391 108.357L384.456 40.6556L309.124 40.5613V38.1569L386.436 38.2354L399.764 107.902L397.391 108.357Z" fill="white"/>
<path d="M415.12 119.735L400.33 49.9591L372.008 49.9119L372.024 47.4918L402.279 47.5546L417.493 119.232L415.12 119.735Z" fill="white"/>
<path d="M371.395 48.9219L368.456 31.5564L287.183 31.4621V29.0577L370.499 29.152L373.784 48.529L371.395 48.9219Z" fill="white"/>
<path d="M401.43 40.6713H384.456L382.255 29.1677H398.978L401.43 40.6713ZM386.452 38.2511H398.46L397.045 31.6035H385.194L386.468 38.2511H386.452Z" fill="white"/>
<path d="M118.491 108.059L116.118 107.603L129.54 37.9683H130.531L206.617 38.0468V40.467L131.521 40.3884L118.491 108.059Z" fill="white"/>
<path d="M100.747 119.389L98.3733 118.887L113.682 47.2403L143.953 47.256V49.6762L115.631 49.6605L100.747 119.389Z" fill="white"/>
<path d="M144.566 48.6861L142.193 48.2775L145.493 28.9162H146.515L228.809 29.0105V31.4149L147.536 31.3206L144.566 48.6861Z" fill="white"/>
<path d="M131.521 40.3884H114.546L117.014 28.8848H133.737L131.521 40.3884ZM117.532 37.9682H129.54L130.829 31.3206H118.978L117.548 37.9682H117.532Z" fill="white"/>
<path d="M432.849 289.225L326.538 289.115V286.695L429.925 286.821L410.468 184.089L412.841 183.649L432.849 289.225Z" fill="white"/>
<path d="M448.377 272.253L407.953 272.237V269.832L445.407 269.848L424.566 170.779L426.923 170.276L448.377 272.253Z" fill="white"/>
<path d="M415.953 306.921L297.635 306.795V304.375L413.108 304.5L407.513 271.2L409.902 270.807L415.953 306.921Z" fill="white"/>
<path d="M456.534 306.968L433.745 306.936L429.925 286.805L452.275 286.836L456.534 306.968ZM435.741 304.532H453.548L450.31 289.257H432.833L435.725 304.532H435.741Z" fill="white"/>
<path d="M186.09 288.926L79.5913 288.801L100.118 183.272L102.491 183.728L82.5304 286.396L186.09 286.506V288.926Z" fill="white"/>
<path d="M104.581 271.875L64.1414 271.797L86.0981 169.867L88.4557 170.37L67.1276 269.392L104.581 269.471V271.875Z" fill="white"/>
<path d="M214.727 306.669L96.4087 306.528L102.633 270.43L105.022 270.838L99.2692 304.123L214.727 304.249V306.669Z" fill="white"/>
<path d="M78.6169 306.512L55.8271 306.481L60.1808 286.365H82.5305L78.6169 306.496V306.512ZM58.8134 304.076H76.6209L79.5914 288.801H62.114L58.8134 304.076Z" fill="white"/>
<path d="M397.391 108.357L384.456 40.6556L309.124 40.5613V38.1569L386.436 38.2354L399.764 107.902L397.391 108.357Z" fill="white"/>
<path d="M415.12 119.735L400.33 49.9591L372.008 49.9119L372.024 47.4918L402.279 47.5546L417.493 119.232L415.12 119.735Z" fill="white"/>
<path d="M371.395 48.9219L368.456 31.5564L287.183 31.4621V29.0577L370.499 29.152L373.784 48.529L371.395 48.9219Z" fill="white"/>
<path d="M401.43 40.6713H384.456L382.255 29.1677H398.978L401.43 40.6713ZM386.452 38.2511H398.46L397.045 31.6035H385.194L386.468 38.2511H386.452Z" fill="white"/>
<path d="M118.491 108.059L116.118 107.603L129.54 37.9683H130.531L206.617 38.0468V40.467L131.521 40.3884L118.491 108.059Z" fill="white"/>
<path d="M100.747 119.389L98.3733 118.887L113.682 47.2403L143.953 47.256V49.6762L115.631 49.6605L100.747 119.389Z" fill="white"/>
<path d="M144.566 48.6861L142.193 48.2775L145.493 28.9162H146.515L228.809 29.0105V31.4149L147.536 31.3206L144.566 48.6861Z" fill="white"/>
<path d="M131.521 40.3884H114.546L117.014 28.8848H133.737L131.521 40.3884ZM117.532 37.9682H129.54L130.829 31.3206H118.978L117.548 37.9682H117.532Z" fill="white"/>
<path d="M327.764 143.214C323.521 125.66 312.141 110.62 297.399 101.741C286.695 95.2978 274.232 91.9348 260.165 91.4319L259.521 74.6793C259.521 74.6793 257.304 81.1226 252.526 87.3145L252.574 91.4319C241.163 91.8248 229.972 94.0563 220.747 98.7709C203.976 107.352 191.277 123.68 187.536 143.214C181.58 174.299 199.356 204.865 234.169 215.379C239.34 216.95 247.041 217.767 253.925 218.113L254.381 261.158C254.381 261.158 260.322 238.386 265.477 228.423L265.084 218.192C271.246 217.783 277.328 216.29 282.908 214.75C318.287 204.928 335.403 174.912 327.764 143.214ZM212.228 187.091C202.939 174.393 200 158.191 202.358 142.161C206.334 115.021 226.703 95.9107 252.605 94.3864L253.831 210.051C237.061 208.637 221.642 199.978 212.228 187.091ZM306.09 184.702C297.65 198.846 282.232 208.181 264.754 209.941L260.291 94.4492C285.218 96.4136 306.656 115.382 311.811 142.161C314.672 156.965 313.383 172.476 306.09 184.702Z" fill="white"/>
</g>
<defs>
<clipPath id="clip0_8_234">
<rect width="504" height="441.931" fill="white"/>
</clipPath>
</defs>
</svg>
